<svg width="40" height="40" viewBox="0 0 40 40" fill="none" xmlns="http://www.w3.org/2000/svg">
<g>
<rect x="10.746" y="9.75" width="10.9495" height="19.9131" rx="1.25" stroke="#48494D" stroke-width="1.5"/>
<mask id="path-2-inside-1" fill="white">
<rect x="12.0969" y="12.0968" width="8.2583" height="7.22601" rx="1"/>
</mask>
<rect x="12.0969" y="12.0968" width="8.2583" height="7.22601" rx="1" stroke="#48494D" stroke-width="3" mask="url(#path-2-inside-1)"/>
<path d="M21.9474 19.834V19.834C23.1306 19.834 24.0897 20.7931 24.0897 21.9763V24.6395C24.0897 25.985 24.6253 28.1298 26.589 27.9072C28.5527 27.6846 28.9098 25.6819 28.9098 24.255C28.9098 22.8282 28.1957 19.6418 28.3742 16.9507C28.5527 14.2597 30.1594 11.953 31.4091 10.9919" stroke="#48494D" stroke-width="1.5" stroke-linecap="round" stroke-linejoin="round"/>
<rect x="9.49798" y="29.506" width="13.4454" height="0.995959" rx="0.497979" fill="#48494D" stroke="#48494D" stroke-width="0.995959"/>
<path d="M29.4181 14.4778V14.4778C30.3327 14.7015 30.9439 15.5632 30.8527 16.5003L30.7677 17.3736C30.6801 18.2733 29.9237 18.9596 29.0197 18.9596V18.9596" stroke="#48494D" stroke-width="1.5"/>
</g>
</svg>
