<svg width="11" height="15" viewBox="0 0 11 15" fill="none" xmlns="http://www.w3.org/2000/svg">
<path d="M1.94001 15V12.28H0.200012V10.98H1.94001V9.19997H0.200012V7.67997H1.94001V0.719971H5.70001C7.44668 0.719971 8.74001 1.0733 9.58001 1.77997C10.4333 2.48664 10.86 3.5133 10.86 4.85997C10.86 6.21997 10.4 7.28664 9.48001 8.05997C8.56001 8.81997 7.20668 9.19997 5.42001 9.19997H3.74001V10.98H7.04001V12.28H3.74001V15H1.94001ZM5.16001 7.67997C6.37335 7.67997 7.31335 7.47997 7.98001 7.07997C8.66001 6.67997 9.00001 5.95997 9.00001 4.91997C9.00001 4.0133 8.72001 3.33997 8.16001 2.89997C7.60001 2.45997 6.72668 2.23997 5.54001 2.23997H3.74001V7.67997H5.16001Z" fill="#48494D"/>
</svg>
