<svg width="21" height="25" viewBox="0 0 21 25" fill="none" xmlns="http://www.w3.org/2000/svg">
<path d="M3.14998 25V21.255H0.349976V17.86H3.14998V15.13H0.349976V10.79H3.14998V0.0100098H11.13C14.35 0.0100098 16.695 0.663343 18.165 1.97001C19.6583 3.27668 20.405 5.07334 20.405 7.36001C20.405 8.71334 20.1016 9.98501 19.495 11.175C18.8883 12.365 17.8733 13.3217 16.45 14.045C15.05 14.7683 13.1366 15.13 10.71 15.13H8.43498V17.86H13.825V21.255H8.43498V25H3.14998ZM10.185 10.79C11.6783 10.79 12.8566 10.5333 13.72 10.02C14.6066 9.50668 15.05 8.67834 15.05 7.53501C15.05 5.41168 13.65 4.35001 10.85 4.35001H8.43498V10.79H10.185Z" fill="#48494D"/>
</svg>
